<?xml version="1.0" encoding="UTF-8"?> <!-- Generator: Adobe Illustrator 21.0.0, SVG Export Plug-In . SVG Version: 6.00 Build 0) --> <svg xmlns="http://www.w3.org/2000/svg" xmlns:xlink="http://www.w3.org/1999/xlink" version="1.1" id="Слой_1" x="0px" y="0px" viewBox="0 0 40 32" style="enable-background:new 0 0 40 32;" xml:space="preserve"> <path id="retail-payment" style="fill:#F4A51C;" d="M21.3,22.2H32c0.3,0,0.6-0.2,0.7-0.6c0,0,0,0,0-0.1v-5.9c0-0.3-0.3-0.6-0.6-0.7 c0,0,0,0-0.1,0H21.3c-0.3,0-0.6,0.2-0.7,0.6c0,0,0,0,0,0.1v5.9C20.6,21.9,20.9,22.2,21.3,22.2C21.3,22.2,21.3,22.2,21.3,22.2z M22,16.3h9.3v4.6H22V16.3z M3.3,13.7h5.3c0.4,0,0.7-0.3,0.7-0.6c0-0.4-0.3-0.7-0.6-0.7c0,0,0,0,0,0H3.3c-0.4,0-0.7,0.3-0.7,0.6 C2.7,13.4,3,13.7,3.3,13.7C3.3,13.7,3.3,13.7,3.3,13.7z M11.3,13.7h5.3c0.4,0,0.7-0.3,0.7-0.6c0-0.4-0.3-0.7-0.6-0.7c0,0,0,0,0,0 h-5.3c-0.4,0-0.7,0.3-0.7,0.6C10.7,13.4,10.9,13.7,11.3,13.7C11.3,13.7,11.3,13.7,11.3,13.7L11.3,13.7z M3.3,16.3H12 c0.4,0,0.7-0.3,0.7-0.7c0-0.4-0.3-0.7-0.7-0.7H3.3c-0.4,0-0.7,0.3-0.7,0.7C2.7,16,3,16.3,3.3,16.3L3.3,16.3z M16.7,15h-2 c-0.3,0-0.6,0.2-0.7,0.6c0,0,0,0.1,0,0.1c0,0.3,0.3,0.6,0.6,0.7c0,0,0,0,0.1,0h2c0.3,0,0.6-0.2,0.7-0.6c0,0,0,0,0-0.1 C17.3,15.3,17.1,15,16.7,15C16.7,15,16.7,15,16.7,15L16.7,15z M39.4,6.9c-0.4-0.6-1.1-0.9-1.8-1L36,5.8V2.6C36,1.2,34.8,0,33.3,0 H2.7C1.2,0,0,1.2,0,2.6v20.9c0,1.2,0.8,2.2,1.9,2.5c0,1.4,1,2.5,2.4,2.6L35.1,32h0.3c1.3,0,2.5-0.9,2.7-2.2l2-21 C40.1,8.1,39.8,7.4,39.4,6.9L39.4,6.9z M1.3,4.6h33.3v3.9H1.3L1.3,4.6L1.3,4.6z M2.7,1.3h30.7c0.7,0,1.3,0.6,1.3,1.3c0,0,0,0,0,0 v0.6H1.3V2.6C1.3,1.9,1.9,1.3,2.7,1.3L2.7,1.3z M1.3,23.5V9.8h33.3v13.7c0,0.7-0.6,1.3-1.3,1.3H2.7C1.9,24.8,1.3,24.2,1.3,23.5 L1.3,23.5z M38.6,8.6l-2,21c-0.1,0.7-0.7,1.2-1.5,1.2c0,0,0,0,0,0L4.5,27.3c-0.6-0.1-1.1-0.6-1.2-1.2h30.1c1.5,0,2.7-1.2,2.7-2.6V7 l1.5,0.1c0.3,0,0.7,0.2,0.9,0.5C38.6,7.8,38.7,8.2,38.6,8.6L38.6,8.6z"></path> </svg> 