<?xml version="1.0" encoding="UTF-8"?> <!-- Generator: Adobe Illustrator 21.0.0, SVG Export Plug-In . SVG Version: 6.00 Build 0) --> <svg xmlns="http://www.w3.org/2000/svg" xmlns:xlink="http://www.w3.org/1999/xlink" version="1.1" id="Слой_1" x="0px" y="0px" viewBox="0 0 32 32" style="enable-background:new 0 0 32 32;" xml:space="preserve"> <path id="retail-247" style="fill:#F4A51C;" d="M30.4,26.6c-2.4-1.4-5.1-2.4-7.8-3l0.2-0.3c0.1-0.1,0.2-0.3,0.1-0.4l-0.5-2 c0.2-0.3,0.4-0.5,0.5-0.8c2-0.7,3-1.8,3.2-3.5c0.9-0.1,1.6-0.8,1.6-1.7v-4c0-0.9-0.7-1.7-1.6-1.7C26,6,24.6,0,16,0 c-1.8,0-3.6,0.4-5.3,1.1C7.5-1,3.2-0.1,1.1,3.1s-1.2,7.5,2,9.6c0.4,0.2,0.7,0.4,1.1,0.6v1.5c0,0.9,0.8,1.7,1.8,1.7h0.8 c0.3,0,0.6-0.1,0.8-0.2c0.3,1.6,1,3.2,1.9,4.5l-0.5,2c0,0.1,0,0.3,0.1,0.4l0.2,0.3c-2.7,0.6-5.4,1.6-7.8,3C0.6,27,0,28.1,0,29.2v2.3 C0,31.7,0.2,32,0.5,32c0,0,0,0,0.1,0h30.9c0.3,0,0.5-0.2,0.5-0.5c0,0,0,0,0-0.1v-2.3C32,28.1,31.4,27.1,30.4,26.6z M16,25.3l1.3,2.9 h-2.6L16,25.3z M14.3,29.3h3.4l0.3,1.6h-4L14.3,29.3z M21.6,21.9l0.2,1l-0.5,0.7c0,0-0.1,0.1-0.1,0.1l-2.2,3.1l-0.7,1l-1.4-3.2 c1.8-0.2,3.4-1.1,4.6-2.4C21.5,22,21.5,21.9,21.6,21.9L21.6,21.9z M23.7,18.6c0.3-0.7,0.5-1.5,0.7-2.3c0.2,0.1,0.4,0.2,0.7,0.2 C24.9,17.4,24.4,18.1,23.7,18.6L23.7,18.6z M26.6,10.8v4c0,0.4-0.3,0.6-0.6,0.6h-0.8c-0.4,0-0.6-0.3-0.6-0.6v-4 c0-0.4,0.3-0.6,0.6-0.6H26C26.3,10.1,26.6,10.4,26.6,10.8L26.6,10.8z M16,1.1c3.3,0,8.8,1.1,9.1,8.1c-0.2,0-0.4,0.1-0.6,0.2 c-0.7-4.1-4.2-7.2-8.4-7.2c-1.2,0-2.4,0.3-3.4,0.7c-0.3-0.4-0.6-0.7-0.9-1C13,1.3,14.5,1.1,16,1.1z M1.1,6.9c0-3.2,2.6-5.9,5.9-5.9 c2,0,3.8,1,4.9,2.6c0,0,0,0.1,0.1,0.1c0.6,0.9,0.9,1.8,0.9,2.9c0,0,0,0,0,0c0,0.1,0,0.1,0,0.2c0,0.1,0,0.2,0,0.3c0,0,0,0,0,0 c0,0.1,0,0.2,0,0.3v0c-0.2,2.6-2.3,4.8-4.9,5.2c0,0-0.1,0-0.1,0c-3.2,0.5-6.2-1.8-6.6-5C1.1,7.5,1.1,7.2,1.1,6.9L1.1,6.9z M7.4,14.8 c0,0.4-0.3,0.6-0.6,0.6H6c-0.4,0-0.6-0.3-0.6-0.6v-1.1c0.2,0,0.3,0.1,0.5,0.1c0.5,0.1,1,0.1,1.6,0.1L7.4,14.8L7.4,14.8z M8.5,13.7 c2.9-0.7,5-3.2,5.3-6.1v0c0-0.1,0-0.2,0-0.3c0,0,0,0,0,0c0-0.1,0-0.2,0-0.3c0-0.1,0-0.1,0-0.2c0,0,0,0,0-0.1c0,0,0-0.1,0-0.1V6.5 l0-0.1c0,0,0,0,0,0c-0.1-0.7-0.2-1.3-0.5-2l0,0c0,0,0-0.1-0.1-0.1c0,0,0-0.1,0-0.1c0,0,0,0,0,0c0-0.1-0.1-0.2-0.1-0.3 C14,3.4,15,3.2,16,3.2c4.1,0,7.5,3.4,7.5,7.5v3.7c0,1.7-0.4,3.3-1.2,4.7c-1.9,0.5-3.8,0.7-5.7,0.6c-0.3,0-0.5,0.2-0.5,0.5 c0,0,0,0,0,0.1c0,0.3,0.2,0.5,0.5,0.5c0,0,0,0,0.1,0c1.6,0,3.2-0.1,4.8-0.4c0,0-0.1,0.1-0.1,0.1c-0.3,0.3-0.5,0.7-0.8,1 c-1.1,1.1-2.6,1.8-4.2,2c-0.1,0-0.2,0-0.2,0c-0.1,0-0.2,0-0.2,0c-0.9-0.1-1.8-0.3-2.6-0.8c-0.9-0.6-1.7-1.3-2.4-2.1 c-0.1,0-0.1-0.1-0.2-0.2l0,0c-1.3-1.7-2-3.8-2-6L8.5,13.7L8.5,13.7L8.5,13.7z M15.2,24.5l-1.4,3.2l-0.7-1l-2.2-3.1c0,0,0,0-0.1,0 l-0.6-0.8l0.2-1c0.1,0.1,0.1,0.1,0.2,0.2C11.8,23.4,13.4,24.2,15.2,24.5L15.2,24.5z M1.1,29.2c0-0.7,0.4-1.3,1-1.6 c2.5-1.5,5.2-2.5,8-3l3.2,4.4l-0.4,2H1.1V29.2L1.1,29.2z M30.9,30.9H19.1l-0.4-2l3.2-4.4c2.8,0.5,5.5,1.6,8,3c0.6,0.3,1,1,1,1.7 L30.9,30.9L30.9,30.9L30.9,30.9z M7.5,8h2.1v1.1c0,0.3,0.3,0.5,0.6,0.5c0.3,0,0.5-0.2,0.5-0.5V8h0.5c0.3,0,0.5-0.2,0.5-0.5 c0,0,0,0,0-0.1c0-0.3-0.2-0.5-0.5-0.5c0,0,0,0-0.1,0h-0.5V4.3c0-0.2-0.2-0.4-0.4-0.5c-0.2-0.1-0.4,0-0.6,0.2L7,7.1 C6.9,7.3,6.9,7.5,7,7.7C7.1,7.9,7.3,8,7.5,8z M9.6,5.8v1.2h-1L9.6,5.8z M6.4,8.6H4.2L6.1,7c0.5-0.6,0.7-1.4,0.4-2.1 C6.2,4.2,5.6,3.7,4.8,3.7c-1.2,0-2.1,1-2.1,2.1c0,0.3,0.2,0.5,0.5,0.5c0.3,0,0.5-0.2,0.5-0.5c0-0.6,0.5-1.1,1.1-1.1 c0.3,0,0.6,0.2,0.7,0.5C5.6,5.6,5.6,6,5.3,6.2L2.9,8.3C2.7,8.5,2.6,8.8,2.7,9.1c0.1,0.3,0.4,0.5,0.7,0.5h2.9c0.3,0,0.5-0.1,0.5-0.4 c0,0,0-0.1,0-0.1C7,8.8,6.7,8.6,6.4,8.6C6.4,8.6,6.4,8.6,6.4,8.6L6.4,8.6z"></path> </svg> 