<?xml version="1.0" encoding="UTF-8"?> <!-- Generator: Adobe Illustrator 21.0.0, SVG Export Plug-In . SVG Version: 6.00 Build 0) --> <svg xmlns="http://www.w3.org/2000/svg" xmlns:xlink="http://www.w3.org/1999/xlink" version="1.1" id="Слой_1" x="0px" y="0px" viewBox="0 0 34 32" style="enable-background:new 0 0 34 32;" xml:space="preserve"> <path id="retail-delivery-man" style="fill:#F4A51C;" d="M32.3,26.3c-2.6-1.5-5.4-2.5-8.3-3.1l0.2-0.3c0.1-0.1,0.2-0.3,0.1-0.5 l-0.5-2.1c1.4-2,2.1-4.3,2.1-6.8v-3.3c0,0,0.1,0,0.1-0.1c0.7-0.6,1.1-1.5,1.1-2.4c0-4.2-3.4-7.6-7.7-7.6h-5c-4.2,0-7.7,3.4-7.8,7.6 c0,0.9,0.4,1.8,1.1,2.4c0,0,0,0,0.1,0v3.4c0,2.4,0.8,4.8,2.2,6.8l-0.5,2.1c0,0.2,0,0.3,0.1,0.5l0.2,0.3c-2.9,0.6-5.7,1.7-8.3,3.1 C0.6,26.8,0,27.9,0,29v2.4C0,31.7,0.2,32,0.5,32c0,0,0,0,0.1,0h32.9c0.3,0,0.5-0.2,0.6-0.5c0,0,0,0,0-0.1V29 C34,27.9,33.3,26.8,32.3,26.3z M23,21.3l0.2,1l-0.6,0.8c0,0-0.1,0.1-0.1,0.1l-3.1,4.3l-1.5-3.4c1.6-0.2,3.2-0.9,4.4-2.1 C22.5,21.8,22.7,21.6,23,21.3L23,21.3z M25.3,9.1C25.3,9.2,25.3,9.2,25.3,9.1c-0.1,0.1-0.2,0.1-0.2,0.1c-0.2,0.2-0.5,0.3-0.8,0.4 c-0.2,0-0.4,0-0.6,0c-4-0.8-8.1-0.8-12.1-0.2c-0.4,0.1-0.9,0.1-1.3,0.2c-0.1,0-0.1,0-0.2,0c-0.5,0-0.9-0.1-1.3-0.4 C8.5,9,8.2,8.7,8.1,8.3l2.4-0.5c4.3-0.8,8.7-0.8,13,0l2.4,0.5C25.8,8.6,25.6,8.9,25.3,9.1L25.3,9.1z M14.5,1.1h5 c3.4,0,6.3,2.6,6.6,6.1l-2.4-0.4c-4.4-0.8-9-0.8-13.4,0L8,7.2C8.2,3.8,11,1.1,14.5,1.1L14.5,1.1z M9.1,10.6c0.5,0.1,1,0.2,1.5,0.1 c2.1-0.4,4.3-0.6,6.4-0.6c2.2,0,4.4,0.2,6.5,0.6c0.1,0,0.3,0,0.4,0c0.4,0,0.7,0,1.1-0.1v2.9c0,2.3-0.7,4.5-2.1,6.3l0,0l-0.2,0.2 c-0.3,0.4-0.6,0.7-0.9,1c-1.3,1.2-2.9,2-4.7,2.1l0,0c-0.1,0-0.1,0-0.2,0c-1-0.1-2-0.3-2.9-0.8c-1-0.6-1.9-1.3-2.6-2.2l-0.2-0.2l0,0 c-1.4-1.8-2.1-4-2.1-6.3L9.1,10.6L9.1,10.6z M16.2,24.1l-1.5,3.4l-3.1-4.3c0,0,0,0-0.1,0l-0.6-0.9l0.2-1c0.1,0.1,0.2,0.2,0.2,0.2 C12.6,22.9,14.3,23.8,16.2,24.1L16.2,24.1z M32.9,30.9H1.1V29c0-0.7,0.4-1.4,1.1-1.7c3.6-1.9,6.2-2.9,8.5-3.1l3.5,4.8 c0.1,0.1,0.2,0.2,0.4,0.2c0,0,0.1,0,0.1,0c0,0,0.1,0,0.1,0.1c0,0,0,0,0,0c0.2,0,0.4-0.2,0.4-0.3L17,25l0.8,1.6l1,2.2 c0.1,0.2,0.2,0.3,0.4,0.3h0.1c0.2,0,0.3-0.1,0.4-0.2l3.6-4.9c3,0.6,5.9,1.6,8.5,3.1c0.7,0.4,1.1,1,1.1,1.8L32.9,30.9L32.9,30.9 L32.9,30.9z M15.9,5.6h2.3c0.3,0,0.5-0.2,0.6-0.5c0,0,0,0,0-0.1V2.3c0-0.3-0.2-0.6-0.5-0.6c0,0,0,0-0.1,0h-2.3 c-0.3,0-0.6,0.2-0.6,0.5c0,0,0,0,0,0.1v2.8C15.3,5.3,15.5,5.6,15.9,5.6C15.8,5.6,15.8,5.6,15.9,5.6L15.9,5.6z M16.4,2.8h1.1v1.7 h-1.1V2.8z"></path> </svg> 