<svg width="219" height="48" viewBox="0 0 219 48" fill="none" xmlns="http://www.w3.org/2000/svg">
<path fill-rule="evenodd" clip-rule="evenodd" d="M28.5789 3.00626C26.2793 2.95627 24.0547 3.20623 21.9301 3.73114L21.9215 3.75602C11.5363 6.32962 3.6921 15.4025 3.04348 26.5347C3.02707 26.7994 3.01553 27.0643 3.00956 27.3292L3.0083 27.377L3.00739 27.4222C2.89829 31.8571 4.00033 36.2463 6.14804 40.1141C6.28054 40.353 6.41709 40.5899 6.55768 40.8247C8.46883 43.9888 11.7322 45.5893 14.9752 45.587C17.8915 45.5851 20.7913 44.2871 22.6763 41.6647C19.6187 36.5002 16.1535 29.868 16.1535 26.3356C16.1535 19.9368 21.3561 14.7313 27.7504 14.7313L27.7504 14.7313C34.1451 14.7313 39.3473 19.9372 39.3457 26.334C39.3457 29.785 36.0367 36.1966 33.0325 41.3066C36.8093 47.1984 45.5523 47.0462 49.2502 41.0996C50.636 38.8622 51.6549 36.4247 52.2734 33.8835L52.2998 33.8759C52.7497 32.0262 52.9747 30.1265 52.9998 28.2019C53.0122 24.8171 52.3487 21.5788 51.1362 18.6184C47.4688 9.66401 38.7792 3.25047 28.5789 3.00626ZM22.537 26.3352C22.537 29.2111 24.8764 31.5518 27.7504 31.5518C30.626 31.5518 32.9653 29.2113 32.9637 26.334C32.9637 23.458 30.6259 21.1173 27.7504 21.1173C24.8763 21.1173 22.537 23.4578 22.537 26.3352Z" fill="url(#paint0_linear)"/>
<path d="M69.616 36.36C69.616 36.776 69.84 37 70.256 37H73.136C73.552 37 73.776 36.776 73.776 36.36V18.504H79.856C80.272 18.504 80.496 18.28 80.496 17.864V15.24C80.496 14.824 80.272 14.6 79.856 14.6H63.536C63.12 14.6 62.896 14.824 62.896 15.24V17.864C62.896 18.28 63.12 18.504 63.536 18.504H69.616V36.36ZM80.1135 36.36C80.1135 36.776 80.3375 37 80.7535 37H83.4415C83.8575 37 84.0815 36.776 84.0815 36.36V30.504C84.0815 28.584 84.6255 27.304 85.4255 26.376C86.0335 25.704 86.7695 25.16 87.8895 25.16C88.9455 25.16 89.5215 25.608 89.6495 26.536C89.7455 26.92 89.8095 27.048 90.1615 27.048H92.7535C93.1695 27.048 93.3935 26.824 93.3935 26.408C93.3935 23.592 91.5375 21.64 88.5615 21.64C86.5455 21.64 85.1375 22.376 84.0815 23.56V22.6C84.0815 22.184 83.8575 21.96 83.4415 21.96H80.7535C80.3375 21.96 80.1135 22.184 80.1135 22.6V36.36ZM107.442 36.168C107.666 36.84 107.89 37 108.306 37H110.578C110.994 37 111.218 36.776 111.218 36.36V22.6C111.218 22.184 110.994 21.96 110.578 21.96H107.89C107.474 21.96 107.25 22.184 107.25 22.6V23.176C106.13 22.184 104.946 21.64 102.898 21.64C98.7375 21.64 95.1855 24.52 95.1855 29.48C95.1855 34.76 98.8015 37.32 102.802 37.32C104.978 37.32 106.162 36.648 107.282 35.72L107.442 36.168ZM107.25 30.184C107.25 31.208 107.026 31.72 106.482 32.456C105.81 33.32 104.69 33.8 103.378 33.8C101.138 33.8 99.2815 32.168 99.2815 29.48C99.2815 26.792 101.234 25.16 103.442 25.16C104.722 25.16 105.618 25.544 106.354 26.216C107.026 26.856 107.25 27.528 107.25 28.52V30.184ZM127.046 32.104C126.918 31.976 126.79 31.912 126.662 31.912C126.534 31.912 126.406 31.976 126.278 32.104C125.158 33.288 123.974 33.8 122.598 33.8C120.262 33.8 118.438 32.104 118.438 29.512C118.438 26.824 120.358 25.16 122.63 25.16C124.166 25.16 125.062 25.608 126.182 26.728C126.31 26.856 126.438 26.92 126.598 26.92C126.726 26.92 126.854 26.856 126.982 26.728L128.55 24.776C128.678 24.616 128.742 24.488 128.742 24.36C128.742 24.2 128.646 24.04 128.486 23.88C127.302 22.632 125.414 21.64 122.694 21.64C118.086 21.64 114.342 24.744 114.342 29.48C114.342 34.696 118.214 37.32 122.534 37.32C125.062 37.32 126.886 36.648 128.838 34.568C128.966 34.44 129.03 34.312 129.03 34.184C129.03 34.056 128.966 33.928 128.87 33.832L127.046 32.104ZM131.645 36.36C131.645 36.776 131.869 37 132.285 37H134.973C135.389 37 135.613 36.776 135.613 36.36V31.368L136.189 30.792L140.381 36.552C140.573 36.84 140.829 37 141.149 37H145.085C145.341 37 145.469 36.904 145.469 36.68C145.469 36.584 145.437 36.488 145.373 36.392L139.101 27.784L144.157 22.6C144.253 22.504 144.285 22.408 144.285 22.28C144.285 22.056 144.157 21.96 143.901 21.96H139.933C139.613 21.96 139.325 22.12 139.069 22.408L135.613 25.992V14.6C135.613 14.184 135.389 13.96 134.973 13.96H132.285C131.869 13.96 131.645 14.184 131.645 14.6V36.36ZM148.718 36.36C148.718 36.776 148.942 37 149.358 37H152.238C152.654 37 152.878 36.776 152.878 36.36V27.56H161.774C162.19 27.56 162.414 27.336 162.414 26.92V24.296C162.414 23.88 162.19 23.656 161.774 23.656H152.878V18.504H164.078C164.366 18.504 164.526 18.344 164.526 18.056V15.24C164.526 14.824 164.302 14.6 163.886 14.6H149.358C148.942 14.6 148.718 14.824 148.718 15.24V36.36ZM166.145 36.36C166.145 36.776 166.369 37 166.785 37H169.473C169.889 37 170.113 36.776 170.113 36.36V30.504C170.113 28.584 170.657 27.304 171.457 26.376C172.065 25.704 172.801 25.16 173.921 25.16C174.977 25.16 175.553 25.608 175.681 26.536C175.777 26.92 175.841 27.048 176.193 27.048H178.785C179.201 27.048 179.425 26.824 179.425 26.408C179.425 23.592 177.569 21.64 174.593 21.64C172.577 21.64 171.169 22.376 170.113 23.56V22.6C170.113 22.184 169.889 21.96 169.473 21.96H166.785C166.369 21.96 166.145 22.184 166.145 22.6V36.36ZM193.988 32.04C193.828 31.88 193.7 31.816 193.572 31.816C193.412 31.816 193.252 31.912 193.092 32.104C192.1 33.16 190.884 33.928 189.188 33.928C187.14 33.928 185.54 32.936 184.996 30.92H195.876C196.292 30.92 196.516 30.696 196.516 30.28V29.32C196.516 25.672 194.148 21.64 188.9 21.64C184.74 21.64 181.092 24.744 181.092 29.48C181.092 34.536 184.868 37.32 189.028 37.32C191.94 37.32 193.668 36.488 195.684 34.472C195.812 34.344 195.876 34.216 195.876 34.088C195.876 33.96 195.812 33.832 195.716 33.736L193.988 32.04ZM184.996 27.592C185.54 26.152 186.916 24.968 188.868 24.968C190.692 24.968 192.036 25.96 192.548 27.592H184.996ZM211.957 32.04C211.797 31.88 211.669 31.816 211.541 31.816C211.381 31.816 211.221 31.912 211.061 32.104C210.069 33.16 208.853 33.928 207.157 33.928C205.109 33.928 203.509 32.936 202.965 30.92H213.845C214.26 30.92 214.485 30.696 214.485 30.28V29.32C214.485 25.672 212.117 21.64 206.869 21.64C202.709 21.64 199.061 24.744 199.061 29.48C199.061 34.536 202.837 37.32 206.997 37.32C209.909 37.32 211.637 36.488 213.653 34.472C213.781 34.344 213.845 34.216 213.845 34.088C213.845 33.96 213.781 33.832 213.685 33.736L211.957 32.04ZM202.965 27.592C203.509 26.152 204.885 24.968 206.837 24.968C208.661 24.968 210.005 25.96 210.517 27.592H202.965Z" fill="#263456"/>
<defs>
<linearGradient id="paint0_linear" x1="23.4364" y1="42.9082" x2="1.55366" y2="24.4598" gradientUnits="userSpaceOnUse">
<stop stop-color="#213053"/>
<stop offset="1" stop-color="#213053"/>
</linearGradient>
</defs>
</svg>
