<?xml version="1.0" standalone="no"?><!DOCTYPE svg PUBLIC "-//W3C//DTD SVG 1.1//EN" "http://www.w3.org/Graphics/SVG/1.1/DTD/svg11.dtd"><svg t="1629191582351" class="icon" viewBox="0 0 1024 1024" version="1.1" xmlns="http://www.w3.org/2000/svg" p-id="19904" xmlns:xlink="http://www.w3.org/1999/xlink" width="48" height="48"><defs><style type="text/css"></style></defs><path d="M1006.592 511.488v-0.512c-0.512-271.872-222.208-493.568-494.592-493.568-259.584 0-475.648 202.24-493.056 460.8 0 2.048-1.024 64.512-1.024 64.512 0 3.072 2.048 5.12 5.12 5.12h105.984c11.776 0 21.504-9.728 21.504-21.504v-27.136c0-12.288-10.24-22.528-22.528-22.528h-37.376c18.432-217.6 202.24-387.072 421.376-387.072 232.96 0 422.912 189.952 422.912 422.912 0 219.136-169.472 403.456-387.072 421.376v-39.936c0-10.752-8.704-19.456-19.456-19.456h-32.256c-10.752 0-19.968 8.704-19.968 19.968v107.52c0 3.072 2.048 5.12 5.12 5.12 0 0 63.488-0.512 64.512-1.024 258.048-17.92 459.776-233.984 460.288-493.056 0-1.024 0.512-1.024 0.512-1.536z" fill="#9c9c9c" p-id="19905"></path><path d="M392.704 986.112c-5.12-1.536-10.24-2.56-15.36-4.096-12.288-3.584-19.456-16.896-15.36-29.184l5.12-14.848c4.096-11.776 16.384-17.92 28.16-14.848 3.584 1.024 7.68 2.048 11.264 3.072 12.288 3.072 19.968 14.848 17.408 27.136l-3.072 15.36c-3.072 12.288-15.872 20.48-28.16 17.408zM273.408 938.496c-4.096-2.56-8.704-5.12-12.8-7.168-11.264-6.656-14.848-22.016-7.168-32.768l8.192-11.776c7.168-10.24 20.992-13.312 31.744-6.656 3.072 2.048 6.656 4.096 9.728 5.632 10.752 6.144 14.848 19.456 9.728 30.72l-6.144 12.8c-7.168 11.264-21.504 15.872-33.28 9.216zM92.16 763.392c-2.56-4.096-5.12-8.704-7.68-12.8-6.656-11.776-2.048-26.112 9.728-32.256L107.52 711.68c11.264-5.632 24.576-1.024 30.72 9.728 2.048 3.072 3.584 6.656 5.632 9.728 6.656 10.752 3.584 24.576-6.656 31.232l-12.8 8.704c-10.24 7.168-25.088 3.584-32.256-7.68zM171.52 862.72l-10.752-10.752c-9.216-9.728-8.704-25.088 1.536-33.792l11.264-9.728c9.216-8.192 23.552-7.68 32.256 1.536l8.192 8.192c8.704 8.704 9.728 22.528 1.536 31.744l-10.24 11.776c-8.704 9.728-24.064 10.752-33.792 1.024zM41.984 647.168c-1.536-5.12-3.072-10.24-4.096-14.848-3.072-12.8 5.12-25.6 17.92-28.16l15.872-3.072c12.288-2.56 24.064 5.12 27.136 17.408l3.072 10.752c3.072 11.776-3.072 24.576-14.848 28.16l-14.848 5.12c-13.312 3.584-26.624-3.072-30.208-15.36z" fill="#9c9c9c" p-id="19906"></path><path d="M738.304 612.352c-3.584-8.192-10.24-14.848-18.944-17.92l-206.336-78.848v-199.68c0-18.944-14.848-33.792-33.792-33.792S445.44 296.96 445.44 315.904v222.72c0 14.336 8.704 27.136 21.504 31.744l228.864 87.04c4.096 1.536 7.68 2.048 11.776 2.048 13.824 0 26.624-8.704 31.232-20.992 3.584-8.704 3.584-17.92-0.512-26.112z" fill="#9c9c9c" p-id="19907"></path></svg>