<?xml version="1.0" encoding="UTF-8"?>
<svg width="48px" height="48px" viewBox="0 0 48 48" version="1.1" xmlns="http://www.w3.org/2000/svg" xmlns:xlink="http://www.w3.org/1999/xlink">
    <title>编组 8</title>
    <g id="listing" stroke="none" stroke-width="1" fill="none" fill-rule="evenodd">
        <g id="编组-8">
            <circle id="椭圆形备份-9" fill="#0070C0" cx="24" cy="24" r="24"></circle>
            <g id="编组" transform="translate(11.000000, 13.000000)" fill="#FFFFFF">
                <path d="M20.3635876,11 L20.3635876,7.5625282 L22.9231976,7.5625282 C23.3159924,7.5625282 23.6871311,7.75730516 23.929824,8.09097834 L25.7773441,10.6303621 C25.8864007,10.7802797 25.7875458,11 25.6110744,11 L20.3635876,11 Z M21.7594293,19.9333146 C20.6057435,20.0109804 19.6591937,18.9883692 19.7310828,17.7419771 C19.7903838,16.7144674 20.5621924,15.8806389 21.5132763,15.8165726 C22.6669621,15.7389068 23.6135119,16.761518 23.5416228,18.0079101 C23.4823218,19.0354199 22.7105132,19.8692483 21.7594293,19.9333146 L21.7594293,19.9333146 Z M6.48672374,19.9333146 C5.33297822,20.0109804 4.38648809,18.9883692 4.45837719,17.7419771 C4.51767824,16.7144674 5.2894868,15.8806389 6.24057068,15.8165726 C7.3943162,15.7389068 8.34080633,16.761518 8.26891723,18.0079101 C8.20961618,19.0354199 7.43780762,19.8692483 6.48672374,19.9333146 L6.48672374,19.9333146 Z M24.1817639,5.49996777 L20.3635876,5.49996777 L20.3635876,1.26920846 C20.3635876,0.56821764 19.8376338,0 19.1887824,0 L2.54547082,0 C1.13966599,0 0,1.23124564 0,2.75001611 L0,16.9921309 C0,17.4797178 0.365888685,17.8750081 0.817209066,17.8750081 L2.54547082,17.8750081 C2.54547082,20.1506501 4.25726668,22 6.36364721,22 C8.47002774,22 10.1818236,20.1506501 10.1818236,17.8750081 L17.8181764,17.8750081 C17.8181764,20.1506501 19.5299723,22 21.6363528,22 C23.7427333,22 25.4545292,20.1506501 25.4545292,17.8750081 L27.0757627,17.8750081 C27.5861455,17.8750081 28,17.4278976 28,16.8765022 L28,11 L24.1817639,5.49996777 Z" id="Fill-1"></path>
            </g>
        </g>
    </g>
</svg>