<?xml version="1.0" standalone="no"?><!DOCTYPE svg PUBLIC "-//W3C//DTD SVG 1.1//EN" "http://www.w3.org/Graphics/SVG/1.1/DTD/svg11.dtd"><svg t="1629192155078" class="icon" viewBox="0 0 1024 1024" version="1.1" xmlns="http://www.w3.org/2000/svg" p-id="30545" xmlns:xlink="http://www.w3.org/1999/xlink" width="48" height="48"><defs><style type="text/css"></style></defs><path d="M181.8 247.3h82v64.3h429.3v-64.3h82.8v231.2h46V201.3H693.1v-64.2H263.8v64.2h-128v621.8h348.3v-46H181.8V247.3z m128-64.1h337.3v82.5H309.8v-82.5z" p-id="30546" fill="#153f69"></path><path d="M286.8 393.6h384.1v46H286.8zM286.8 525.9H516v46H286.8zM286.8 649.3h164.4v46H286.8zM706 522.4c-100.5 0-182.2 81.7-182.2 182.2 0 100.5 81.7 182.2 182.2 182.2 100.5 0 182.2-81.7 182.2-182.2 0-100.5-81.8-182.2-182.2-182.2z m0 318.4c-75.1 0-136.2-61.1-136.2-136.2s61-136.2 136.2-136.2 136.2 61.1 136.2 136.2S781.1 840.8 706 840.8z" p-id="30547" fill="#153f69"></path><path d="M711.8 617h-46v120.7h115.9v-46h-69.9z" p-id="30548" fill="#153f69"></path></svg>