<?xml version="1.0" encoding="UTF-8"?>
<svg width="48px" height="48px" viewBox="0 0 48 48" version="1.1" xmlns="http://www.w3.org/2000/svg" xmlns:xlink="http://www.w3.org/1999/xlink">
    <title>编组 9</title>
    <g id="listing" stroke="none" stroke-width="1" fill="none" fill-rule="evenodd">
        <g id="编组-9">
            <circle id="椭圆形备份-3" fill="#FA8D25" cx="24" cy="24" r="24"></circle>
            <path d="M16.0621028,11 C16.4917865,11 16.8581742,11.2710027 16.9996677,11.65141 L16.6801655,11.6906363 C20.47772,11.1772826 24.0323329,11.8830061 27.3440043,13.8078069 C30.6556756,15.7326078 33.9113392,16.4759398 37.1109951,16.037803 C38.9459551,15.5450563 39.4440691,16.1150004 38.6053371,17.7476353 C37.347239,20.1965878 32.4069158,23.3934426 29.4376579,23.8962393 C26.4684001,24.3990359 23.5816669,22.6065574 21.581436,23 C20.3369411,23.2447904 18.8309172,23.6824255 17.0633643,24.3129053 L17.0621028,36 C17.0621028,36.5522847 16.6143876,37 16.0621028,37 L16,37 C15.4477153,37 15,36.5522847 15,36 L15,12 C15,11.4477153 15.4477153,11 16,11 L16.0621028,11 Z" id="形状结合" fill="#FFFFFF"></path>
        </g>
    </g>
</svg>