<?xml version="1.0" standalone="no"?><!DOCTYPE svg PUBLIC "-//W3C//DTD SVG 1.1//EN" "http://www.w3.org/Graphics/SVG/1.1/DTD/svg11.dtd"><svg t="1629357955893" class="icon" viewBox="0 0 1024 1024" version="1.1" xmlns="http://www.w3.org/2000/svg" p-id="5475" width="48" height="48" xmlns:xlink="http://www.w3.org/1999/xlink"><defs><style type="text/css"></style></defs><path d="M512 85.333333C276.48 85.333333 85.333333 276.48 85.333333 512s191.146667 426.666667 426.666667 426.666667 426.666667-191.146667 426.666667-426.666667S747.52 85.333333 512 85.333333z m0 768c-188.586667 0-341.333333-152.746667-341.333333-341.333333s152.746667-341.333333 341.333333-341.333333 341.333333 152.746667 341.333333 341.333333-152.746667 341.333333-341.333333 341.333333z" p-id="5476" fill="#282828"></path><path d="M298.666667 512m-64 0a64 64 0 1 0 128 0 64 64 0 1 0-128 0Z" p-id="5477" fill="#282828"></path><path d="M512 512m-64 0a64 64 0 1 0 128 0 64 64 0 1 0-128 0Z" p-id="5478" fill="#282828"></path><path d="M725.333333 512m-64 0a64 64 0 1 0 128 0 64 64 0 1 0-128 0Z" p-id="5479" fill="#282828"></path></svg>