<svg width="48" height="48" viewBox="0 0 48 48" fill="none" xmlns="http://www.w3.org/2000/svg">
<g clip-path="url(#clip0)">
<path fill-rule="evenodd" clip-rule="evenodd" d="M28.5 9.74927H6V32.2493C6 33.9075 7.34325 35.2508 8.99925 35.2508H39.0007C40.6567 35.2508 42 33.9075 42 32.2493V24.5025C42 23.8523 41.7885 23.22 41.3993 22.7025L37.6508 17.703C37.3717 17.3296 37.0094 17.0264 36.5926 16.8174C36.1759 16.6085 35.7162 16.4995 35.25 16.4993H31.4993V9.74927H28.5ZM28.5 12.7508H8.99925V32.2493H28.5V12.7508ZM31.4993 19.5008V32.2493H39.0007V24.5025L35.25 19.5008H31.4993Z" fill="#018184"/>
<path d="M16.5008 34.4993C16.5008 35.494 16.1056 36.4481 15.4022 37.1515C14.6988 37.8549 13.7448 38.25 12.75 38.25C11.7553 38.25 10.8012 37.8549 10.0978 37.1515C9.39443 36.4481 8.99927 35.494 8.99927 34.4993C8.99927 33.5045 9.39443 32.5505 10.0978 31.8471C10.8012 31.1437 11.7553 30.7485 12.75 30.7485C13.7448 30.7485 14.6988 31.1437 15.4022 31.8471C16.1056 32.5505 16.5008 33.5045 16.5008 34.4993ZM39.0008 34.4993C39.0008 34.9918 38.9037 35.4796 38.7153 35.9346C38.5268 36.3897 38.2505 36.8032 37.9022 37.1515C37.5539 37.4998 37.1404 37.776 36.6854 37.9645C36.2303 38.153 35.7426 38.25 35.25 38.25C34.7575 38.25 34.2697 38.153 33.8147 37.9645C33.3596 37.776 32.9461 37.4998 32.5978 37.1515C32.2495 36.8032 31.9733 36.3897 31.7848 35.9346C31.5963 35.4796 31.4993 34.9918 31.4993 34.4993C31.4993 33.5045 31.8944 32.5505 32.5978 31.8471C33.3012 31.1437 34.2553 30.7485 35.25 30.7485C36.2448 30.7485 37.1988 31.1437 37.9022 31.8471C38.6056 32.5505 39.0008 33.5045 39.0008 34.4993Z" fill="#018184"/>
<path fill-rule="evenodd" clip-rule="evenodd" d="M25.0032 17.6356C25.2986 17.9017 25.4763 18.274 25.4974 18.671C25.5185 19.0679 25.3812 19.457 25.1157 19.7529L18.3657 27.2544C18.2294 27.4056 18.0637 27.5275 17.8788 27.6126C17.6938 27.6978 17.4935 27.7444 17.2899 27.7496C17.0864 27.7549 16.8839 27.7187 16.6948 27.6432C16.5057 27.5677 16.334 27.4546 16.19 27.3106L12.4392 23.5599C12.2906 23.4227 12.1713 23.257 12.0883 23.0725C12.0054 22.8881 11.9605 22.6888 11.9565 22.4867C11.9525 22.2845 11.9894 22.0836 12.065 21.896C12.1406 21.7084 12.2533 21.5381 12.3964 21.3952C12.5394 21.2523 12.7099 21.1397 12.8975 21.0643C13.0852 20.989 13.2861 20.9523 13.4883 20.9565C13.6905 20.9607 13.8897 21.0058 14.0741 21.0889C14.2584 21.1721 14.424 21.2916 14.561 21.4404L17.1935 24.0729L22.886 17.7459C23.152 17.4512 23.5239 17.2739 23.9203 17.2529C24.3167 17.2318 24.7052 17.3686 25.001 17.6334L25.0032 17.6356Z" fill="#018184"/>
</g>
<defs>
<clipPath id="clip0">
<rect width="36" height="29.25" fill="white" transform="translate(6 9)"/>
</clipPath>
</defs>
</svg>
